<svg width="49" height="49" viewBox="0 0 49 49" fill="none" xmlns="http://www.w3.org/2000/svg">
<path fill-rule="evenodd" clip-rule="evenodd" d="M24.5 0C10.9693 0 0 10.9693 0 24.5C0 38.0307 10.9693 49 24.5 49C38.0307 49 49 38.0307 49 24.5C49 10.9693 38.0307 0 24.5 0ZM26.7273 33.4091C26.7273 33.9998 26.4926 34.5663 26.0749 34.984C25.6572 35.4017 25.0907 35.6364 24.5 35.6364C23.9093 35.6364 23.3428 35.4017 22.9251 34.984C22.5074 34.5663 22.2727 33.9998 22.2727 33.4091V26.7273H15.5909C15.0002 26.7273 14.4337 26.4926 14.016 26.0749C13.5983 25.6572 13.3636 25.0907 13.3636 24.5C13.3636 23.9093 13.5983 23.3428 14.016 22.9251C14.4337 22.5074 15.0002 22.2727 15.5909 22.2727H22.2727V15.5909C22.2727 15.0002 22.5074 14.4337 22.9251 14.016C23.3428 13.5983 23.9093 13.3636 24.5 13.3636C25.0907 13.3636 25.6572 13.5983 26.0749 14.016C26.4926 14.4337 26.7273 15.0002 26.7273 15.5909V22.2727H33.4091C33.9998 22.2727 34.5663 22.5074 34.984 22.9251C35.4017 23.3428 35.6364 23.9093 35.6364 24.5C35.6364 25.0907 35.4017 25.6572 34.984 26.0749C34.5663 26.4926 33.9998 26.7273 33.4091 26.7273H26.7273V33.4091Z" fill="#FB891F"/>
</svg>
