<svg width="226" height="89" viewBox="0 0 226 89" fill="none" xmlns="http://www.w3.org/2000/svg">
<path d="M8.6164 38.6435C6.72952 38.6435 5.07851 38.2455 3.66335 37.4494C2.27768 36.6534 1.26054 35.5773 0.611925 34.2211L2.29242 32.806C2.85259 33.9853 3.69284 34.914 4.81317 35.592C5.9335 36.2701 7.24547 36.6092 8.74907 36.6092C10.6949 36.6092 12.2427 36.049 13.3925 34.9287C14.5718 33.8378 15.4268 31.9952 15.9575 29.4007L20.8221 5.07776H9.41242L9.81044 3.04348H23.4755L18.1687 29.5334C17.5201 32.806 16.4292 35.1351 14.8962 36.5207C13.3631 37.9359 11.2698 38.6435 8.6164 38.6435ZM49.7537 32.2753C50.6382 32.2753 51.4047 32.1279 52.0533 31.833L51.8764 33.6904C51.0804 34.0147 50.1812 34.1769 49.1788 34.1769C47.5867 34.1769 46.3632 33.7494 45.5082 32.8944C44.6532 32.0099 44.2552 30.8159 44.3142 29.3123C43.1938 30.8749 41.7934 32.0836 40.1129 32.9386C38.4324 33.7641 36.5456 34.1769 34.4523 34.1769C31.4451 34.1769 29.0275 33.3219 27.1996 31.6119C25.4012 29.8725 24.502 27.5286 24.502 24.5804C24.502 21.9564 25.0622 19.5978 26.1825 17.5046C27.3028 15.3819 28.8507 13.7308 30.826 12.5516C32.8308 11.3428 35.0714 10.7384 37.548 10.7384C39.936 10.7384 41.9114 11.2543 43.4739 12.2862C45.0365 13.3181 46.0979 14.7775 46.658 16.6643L47.8078 10.9153H50.019L46.658 27.6318C46.5696 28.1625 46.5254 28.6489 46.5254 29.0912C46.5254 30.1231 46.7907 30.9191 47.3214 31.4793C47.8815 32.0099 48.6923 32.2753 49.7537 32.2753ZM34.8945 32.1868C36.9583 32.1868 38.801 31.6856 40.4225 30.6832C42.0735 29.6808 43.3707 28.2952 44.3142 26.5262C45.2576 24.7278 45.7293 22.7082 45.7293 20.4676C45.7293 18.0205 45.007 16.1189 43.5624 14.7627C42.1472 13.4065 40.1424 12.7284 37.548 12.7284C35.4842 12.7284 33.6268 13.2444 31.9758 14.2763C30.3543 15.2787 29.0718 16.6791 28.1283 18.4775C27.1849 20.2465 26.7132 22.2365 26.7132 24.4477C26.7132 26.8947 27.4208 28.7964 28.8359 30.1525C30.2806 31.5087 32.3001 32.1868 34.8945 32.1868ZM60.452 34.1769C58.6536 34.1769 56.9288 33.9116 55.2778 33.3809C53.6563 32.8207 52.3885 32.1131 51.4746 31.2581L52.6686 29.5334C53.5236 30.3589 54.6587 31.0223 56.0739 31.5235C57.5185 31.9952 59.0368 32.2311 60.6289 32.2311C63.017 32.2311 64.8596 31.8183 66.1568 30.9928C67.4835 30.1378 68.1469 28.9585 68.1469 27.4549C68.1469 26.5999 67.8816 25.9218 67.3509 25.4206C66.8202 24.9194 66.1716 24.5509 65.405 24.315C64.6385 24.0497 63.5771 23.7696 62.2209 23.4748C60.6289 23.1505 59.3317 22.8114 58.3293 22.4576C57.3563 22.1039 56.5308 21.5584 55.8527 20.8214C55.1746 20.0548 54.8356 19.0229 54.8356 17.7257C54.8356 15.603 55.7053 13.9077 57.4448 12.64C59.2137 11.3723 61.5576 10.7384 64.4763 10.7384C65.9505 10.7384 67.3804 10.9448 68.766 11.3575C70.1517 11.7408 71.2573 12.2862 72.0828 12.9938L71.0657 14.7185C70.2107 14.0404 69.1788 13.5392 67.97 13.2149C66.7907 12.8611 65.5672 12.6842 64.2994 12.6842C62.0588 12.6842 60.2751 13.1265 58.9484 14.0109C57.6512 14.8954 57.0025 16.06 57.0025 17.5046C57.0025 18.3891 57.2679 19.0966 57.7986 19.6273C58.3293 20.1285 58.9926 20.5118 59.7886 20.7771C60.6141 21.0425 61.705 21.3226 63.0612 21.6174C64.6532 21.9417 65.921 22.2807 66.8644 22.6345C67.8373 22.9588 68.6628 23.4895 69.3409 24.2266C70.019 24.9636 70.3581 25.966 70.3581 27.2338C70.3581 29.386 69.4589 31.0812 67.6604 32.3195C65.862 33.5578 63.4592 34.1769 60.452 34.1769ZM82.8972 34.1769C79.7721 34.1769 77.2808 33.3072 75.4234 31.5677C73.5955 29.8282 72.6815 27.4991 72.6815 24.5804C72.6815 21.9564 73.2417 19.5978 74.362 17.5046C75.5119 15.4113 77.0892 13.7603 79.094 12.5516C81.0988 11.3428 83.3689 10.7384 85.9044 10.7384C89.0295 10.7384 91.5061 11.6081 93.334 13.3476C95.1914 15.0576 96.1201 17.3867 96.1201 20.3349C96.1201 22.9588 95.5451 25.3322 94.3953 27.4549C93.275 29.5482 91.7124 31.1992 89.7076 32.408C87.7028 33.5872 85.4327 34.1769 82.8972 34.1769ZM83.0741 32.1868C85.1379 32.1868 86.9805 31.6856 88.602 30.6832C90.2531 29.6808 91.5503 28.2952 92.4937 26.5262C93.4372 24.7278 93.9089 22.7082 93.9089 20.4676C93.9089 18.0205 93.1866 16.1189 91.7419 14.7627C90.3268 13.4065 88.322 12.7284 85.7275 12.7284C83.6637 12.7284 81.8063 13.2444 80.1553 14.2763C78.5338 15.2787 77.2513 16.6791 76.3079 18.4775C75.3644 20.2465 74.8927 22.2365 74.8927 24.4477C74.8927 26.8947 75.6003 28.7964 77.0155 30.1525C78.4601 31.5087 80.4796 32.1868 83.0741 32.1868ZM113.682 10.7384C116.306 10.7384 118.325 11.4017 119.741 12.7284C121.156 14.0257 121.863 15.8241 121.863 18.1237C121.863 18.9198 121.775 19.76 121.598 20.6445L118.945 34H116.733L119.387 20.6445C119.534 19.9664 119.608 19.2293 119.608 18.4333C119.608 16.6054 119.048 15.205 117.927 14.232C116.837 13.2296 115.23 12.7284 113.107 12.7284C110.454 12.7284 108.242 13.4802 106.474 14.9839C104.705 16.458 103.54 18.6102 102.98 21.4405L100.459 34H98.248L102.847 10.9153H105.014L104.13 15.2934C105.221 13.7603 106.577 12.6253 108.198 11.8882C109.849 11.1217 111.677 10.7384 113.682 10.7384ZM131.463 1.00919C131.964 1.00919 132.377 1.18609 132.701 1.53987C133.055 1.89366 133.232 2.32116 133.232 2.82236C133.232 3.11718 133.187 3.41201 133.099 3.70683C133.01 3.97217 132.848 4.31122 132.612 4.72397L129.517 10.9153H127.925L130.622 4.63553C130.298 4.48811 130.033 4.267 129.826 3.97217C129.62 3.67735 129.517 3.3383 129.517 2.95503C129.517 2.39486 129.708 1.93789 130.092 1.5841C130.475 1.20083 130.932 1.00919 131.463 1.00919ZM137.679 34.1769C135.881 34.1769 134.156 33.9116 132.505 33.3809C130.883 32.8207 129.616 32.1131 128.702 31.2581L129.896 29.5334C130.751 30.3589 131.886 31.0223 133.301 31.5235C134.746 31.9952 136.264 32.2311 137.856 32.2311C140.244 32.2311 142.087 31.8183 143.384 30.9928C144.711 30.1378 145.374 28.9585 145.374 27.4549C145.374 26.5999 145.109 25.9218 144.578 25.4206C144.047 24.9194 143.399 24.5509 142.632 24.315C141.866 24.0497 140.804 23.7696 139.448 23.4748C137.856 23.1505 136.559 22.8114 135.556 22.4576C134.584 22.1039 133.758 21.5584 133.08 20.8214C132.402 20.0548 132.063 19.0229 132.063 17.7257C132.063 15.603 132.933 13.9077 134.672 12.64C136.441 11.3723 138.785 10.7384 141.704 10.7384C143.178 10.7384 144.608 10.9448 145.993 11.3575C147.379 11.7408 148.484 12.2862 149.31 12.9938L148.293 14.7185C147.438 14.0404 146.406 13.5392 145.197 13.2149C144.018 12.8611 142.794 12.6842 141.527 12.6842C139.286 12.6842 137.502 13.1265 136.176 14.0109C134.878 14.8954 134.23 16.06 134.23 17.5046C134.23 18.3891 134.495 19.0966 135.026 19.6273C135.556 20.1285 136.22 20.5118 137.016 20.7771C137.841 21.0425 138.932 21.3226 140.288 21.6174C141.88 21.9417 143.148 22.2807 144.092 22.6345C145.065 22.9588 145.89 23.4895 146.568 24.2266C147.246 24.9636 147.585 25.966 147.585 27.2338C147.585 29.386 146.686 31.0812 144.888 32.3195C143.089 33.5578 140.686 34.1769 137.679 34.1769ZM20.6894 43.6427C18.036 43.6427 16.0312 44.2324 14.675 45.4117C13.3188 46.591 12.6407 48.3304 12.6407 50.6301V53.2835H26.1289V58.1481H12.6407V70H6.89168V50.6301C6.89168 46.8858 8.08571 43.9523 10.4738 41.8296C12.8913 39.6773 16.2081 38.6012 20.4241 38.6012C22.193 38.6012 23.8441 38.7929 25.3771 39.1761C26.9102 39.5594 28.2517 40.1196 29.4015 40.8566L27.5883 45.5443C25.7604 44.2766 23.4608 43.6427 20.6894 43.6427ZM38.2497 70.3096C35.8616 70.3096 33.7094 69.7936 31.793 68.7617C29.8767 67.7299 28.3731 66.3 27.2822 64.472C26.2208 62.6147 25.6902 60.5214 25.6902 58.1923C25.6902 55.8632 26.2208 53.7847 27.2822 51.9568C28.3731 50.1289 29.8767 48.699 31.793 47.6671C33.7094 46.6352 35.8616 46.1193 38.2497 46.1193C40.6672 46.1193 42.8342 46.6352 44.7505 47.6671C46.6669 48.699 48.1558 50.1289 49.2171 51.9568C50.308 53.7847 50.8534 55.8632 50.8534 58.1923C50.8534 60.5214 50.308 62.6147 49.2171 64.472C48.1558 66.3 46.6669 67.7299 44.7505 68.7617C42.8342 69.7936 40.6672 70.3096 38.2497 70.3096ZM38.2497 65.5776C40.284 65.5776 41.9645 64.8995 43.2912 63.5434C44.6179 62.1872 45.2812 60.4035 45.2812 58.1923C45.2812 55.9811 44.6179 54.1974 43.2912 52.8412C41.9645 51.4851 40.284 50.807 38.2497 50.807C36.2154 50.807 34.5349 51.4851 33.2082 52.8412C31.911 54.1974 31.2623 55.9811 31.2623 58.1923C31.2623 60.4035 31.911 62.1872 33.2082 63.5434C34.5349 64.8995 36.2154 65.5776 38.2497 65.5776ZM62.1097 70.3096C59.7216 70.3096 57.5694 69.7936 55.653 68.7617C53.7367 67.7299 52.2331 66.3 51.1422 64.472C50.0809 62.6147 49.5502 60.5214 49.5502 58.1923C49.5502 55.8632 50.0809 53.7847 51.1422 51.9568C52.2331 50.1289 53.7367 48.699 55.653 47.6671C57.5694 46.6352 59.7216 46.1193 62.1097 46.1193C64.5272 46.1193 66.6942 46.6352 68.6106 47.6671C70.5269 48.699 72.0158 50.1289 73.0771 51.9568C74.168 53.7847 74.7134 55.8632 74.7134 58.1923C74.7134 60.5214 74.168 62.6147 73.0771 64.472C72.0158 66.3 70.5269 67.7299 68.6106 68.7617C66.6942 69.7936 64.5272 70.3096 62.1097 70.3096ZM62.1097 65.5776C64.144 65.5776 65.8245 64.8995 67.1512 63.5434C68.4779 62.1872 69.1412 60.4035 69.1412 58.1923C69.1412 55.9811 68.4779 54.1974 67.1512 52.8412C65.8245 51.4851 64.144 50.807 62.1097 50.807C60.0754 50.807 58.3949 51.4851 57.0682 52.8412C55.771 54.1974 55.1224 55.9811 55.1224 58.1923C55.1224 60.4035 55.771 62.1872 57.0682 63.5434C58.3949 64.8995 60.0754 65.5776 62.1097 65.5776ZM98.485 37.1861V70H93.1781V66.9486C92.2642 68.0689 91.1291 68.9092 89.7729 69.4693C88.4462 70.0295 86.9721 70.3096 85.3506 70.3096C83.0804 70.3096 81.0314 69.8084 79.2035 68.806C77.4051 67.8036 75.9899 66.3884 74.958 64.5605C73.9261 62.7031 73.4102 60.5804 73.4102 58.1923C73.4102 55.8042 73.9261 53.6962 74.958 51.8683C75.9899 50.0404 77.4051 48.6253 79.2035 47.6229C81.0314 46.6205 83.0804 46.1193 85.3506 46.1193C86.9131 46.1193 88.343 46.3846 89.6403 46.9153C90.9375 47.446 92.0431 48.242 92.957 49.3034V37.1861H98.485ZM86.0139 65.5776C87.3406 65.5776 88.5347 65.2828 89.596 64.6932C90.6574 64.074 91.4976 63.2043 92.1168 62.084C92.7359 60.9636 93.0455 59.6664 93.0455 58.1923C93.0455 56.7182 92.7359 55.421 92.1168 54.3006C91.4976 53.1803 90.6574 52.3253 89.596 51.7357C88.5347 51.1165 87.3406 50.807 86.0139 50.807C84.6872 50.807 83.4932 51.1165 82.4318 51.7357C81.3704 52.3253 80.5302 53.1803 79.9111 54.3006C79.2919 55.421 78.9824 56.7182 78.9824 58.1923C78.9824 59.6664 79.2919 60.9636 79.9111 62.084C80.5302 63.2043 81.3704 64.074 82.4318 64.6932C83.4932 65.2828 84.6872 65.5776 86.0139 65.5776Z" fill="#FB891F"/>
<path d="M121.597 59.1536C122.644 58.3597 123.54 57.9252 124.285 57.8501C125.03 57.775 125.798 57.9945 126.589 58.5085C126.307 57.6082 126.303 56.8095 126.576 56.1121C126.849 55.4148 127.509 54.6691 128.555 53.8752L139.035 45.9255C141.297 44.209 141.613 42.2759 139.983 40.1263L139.114 38.9808L141.617 37.0819L142.808 38.6517C145.747 42.5266 145.336 45.891 141.574 48.7447L130.798 56.9197C129.355 58.014 129.117 59.1975 130.083 60.4703L131.177 61.9128L128.631 63.8439L127.537 62.4014C126.571 61.1286 125.367 61.0394 123.925 62.1337L113.149 70.3087C109.387 73.1624 106.036 72.6518 103.097 68.7769L101.906 67.2071L104.409 65.3082L105.278 66.4537C106.909 68.6033 108.855 68.8198 111.118 67.1033L121.597 59.1536Z" fill="white"/>
<circle cx="110.041" cy="50.2196" r="3.99642" transform="rotate(-34.5772 110.041 50.2196)" fill="white"/>
<circle cx="122.263" cy="41.7955" r="3.99642" transform="rotate(-34.5772 122.263 41.7955)" fill="white"/>
</svg>
